<svg xmlns="http://www.w3.org/2000/svg" width="949" height="195">
  <path fill-rule="evenodd" d="M291.726 22.981c-.279-.11-.529-.166-.75-.166h-.75c-1.612 0-2.776.415-4.708.625-1.529.416-2.904 1.125-4.125 2.125-1.223 1-2.196 2.306-2.917 3.916-.723 2.449-1.083 4.449-1.083 6v23.667h-5.667V17.481h5.667v7.75c.888-2.11 2.458-3.929 4.708-5.458 2.25-1.527 5.125-2.292 8.625-2.292h.792c.25 0 .792.029.791.084l-.583 5.416ZM255.59 50.648c-2.143 2.833-4.309 5.125-7.031 6.875-2.722 1.75-5.889 2.625-8.969 2.625-3.29 0-6.364-.57-8.864-1.708-2.5-1.138-4.625-2.68-6.375-4.625-1.75-1.944-3.098-4.236-4.042-6.875-.945-2.638-1.416-5.486-1.416-8.542 0-3.055.471-5.917 1.416-8.583.944-2.667 2.292-4.972 4.042-6.917 1.75-1.944 3.875-3.486 6.375-4.625 2.5-1.138 5.574-1.708 8.864-1.708 3.08 0 6.247.889 8.969 2.666 2.722 1.869 4.888 4.084 7.031 6.917v-8.667h5.053v41.667h-5.053v-8.5Zm-1.822-18.792c-.806-1.971-1.917-3.694-3.334-5.166-1.254-1.472-3.083-2.04-5-3.459-1.916-.833-4.014-1.25-6.291-1.25-2.223 0-4.237.431-6.042 1.292-1.806.862-3.362 2.042-4.667 3.542-1.306 1.5-2.306 3.705-3 5.415-.695 1.766-1.041 3.891-1.041 6.168 0 2.223.346 4.333 1.041 6.333.694 2 1.694 3.75 3 5.25 1.305 1.5 2.861 2.681 4.667 3.542 1.805.862 3.819 1.292 6.042 1.292 2.277 0 4.375-.417 6.291-1.25 1.917-.834 3.746-2 5-2.915 1.417-2.085 2.528-3.835 3.334-5.835.804-2 1.208-4.167 1.208-6.5 0-2.334-.404-4.486-1.208-6.459Zm-44.459 27.709c-.889 0-1.75-.112-2.583-.334-.833-.131-1.57-.61-2.208-.581-.64-1.14-1.14-1.904-1.338-2.877-.524-.971-.704-2.236-.704-3.792V.815h6.114v50.916c0 .946-.309 1.598.136 1.959.444.83 1.055.541 1.833.541.388 0 .805-.027 1.25-.083.444.782.944.222 1.5-.167v5.167c-.666.111-1.333.208-2 .292-.666.083-1.333.125-2 .125Zm-23.666-6.167c-1.279 1.779-3.056 3.333-5.334 5.252-1.999.748-4.862 2-7.75 2-.969 0-3.222-.822-5.166-1.294-1.946-.471-3.792-1.256-5.542-2.625-1.75-1.277-3.237-3.069-4.458-5.375-1.223-1.836-1.834-4.706-1.834-8.958V17.481h5.667v24.917c0 2.5.402 4.556 1.208 6.167.805 1.612 1.819 2.903 3.042 3.875 1.221.972 2.834 2.35 4 2 1.444.362 2.805.541 4.083.541s2.625-.208 4.042-.625c1.579-.416 2.721-1.166 3.917-2.25 1.194-.876 2.179-2.541 2.958-4.375.777-1.833 1.167-4.166 1.167-7v-23.25h5.666v41.667h-5.666v-5.75Zm-47.5 18.208c-1.946 1.694-4.237 2.986-6.875 3.875-2.64.888-5.487 1.334-8.542 1.334-4.889 0-9.125-.917-12.546-2.165-3.746-2.419-6.287-4.835-7.787-7.835l4.833-2.834c.5.944 1.18 1.875 2.042 2.792.86.917 1.929 1.736 3.208 2.458 1.277.722 2.777 1.292 4.5 1.709 1.721.416 3.667.625 5.833.625 3.061 0 4.388-.348 6.334-1.042 2.727-.695 3.625-1.667 5.041-2.917 1.417-1.25 2.528-2.764 3.334-3.956.804-2.364 1.208-4.335 1.208-6.502v-6.417c-1.612 2.779-3.764 5.042-6.458 6.792-2.696 1.75-5.875 2.625-9.542 2.625-3.056 0-5.82-.57-8.292-1.708-2.472-1.138-4.583-2.68-6.333-4.625-1.75-1.944-2.801-4.236-3.511-6.875-1.476-2.638-1.947-5.486-1.947-8.542 0-3.055.471-5.917 1.947-8.583.71-2.667 1.761-4.972 3.511-6.917 1.75-1.944 3.861-3.486 6.333-4.625 2.472-1.138 5.236-1.708 8.292-1.708 3.667 0 6.846.875 9.542 2.625 2.694 1.75 4.846 4.041 6.458 7.46v-9.169h5.667v39.667c0 3.055-.556 5.805-1.667 8.25-1.112 2.444-1.856 4.513-4.583 6.208Zm-.625-39.75c-.806-1.971-1.917-3.694-3.334-5.166-1.416-1.472-3.083-2.04-5-3.459-1.916-.833-4.014-1.25-6.291-1.25-2.223 0-4.237.431-6.042 1.292-1.401.862-3.362 2.042-4.667 3.542-1.306 1.5-2.306 3.705-3 5.415-.695 1.766-1.041 3.891-1.041 6.168 0 2.223.346 4.333 1.041 6.333.694 2 1.694 3.75 3 5.25 1.305 1.5 3.266 2.681 4.667 3.542 1.805.862 3.819 1.292 6.042 1.292 2.277 0 4.375-.417 6.291-1.25 1.917-.834 3.584-2 5-2.915 1.417-2.085 2.528-3.835 3.334-5.835.804-2 1.208-4.167 1.208-6.5 0-2.334-.404-4.486-1.208-6.459Zm-49.875 2.375c0-2.5-.404-4.569-1.209-6.001-.806-1.845-1.82-2.3-3.041-4.082-1.223-.944-2.556-1.596-4-1.958-1.446-.361-2.806-.542-4.084-.542-.999 0-2.625.208-4.041.625-1.417.417-2.737 1.167-3.959 2.25-.439 1.083-1.439 3.127-3 4.375-.778 1.833-1.166 4.752-1.166 7v23.25h-5.584V17.481h5.584v5.75c1.333-1.777 3.125-3.333 5.375-4.666 2.25-1.334 4.819-2 7.708-2 1.5 0 3.236.237 5.208.708 1.972.473 3.834 1.348 5.746 2.625 1.588 1.279 3.059 3.07 4.254 5.375 1.194 2.306 1.792 5.292 1.792 8.958v24.917h-5.583V34.231ZM39.226 45.65H12.59L6.726 59.148h-6.5L22.393.815h6.416l22.167 58.333h-6.333L39.226 45.65ZM25.643 9.231 14.226 39.398h22.917l-11.5-30.167Zm922.683 150.1c-.101 1.402-.066 3.499-.6 4.05h-52.8c1.699 4.439 4.073 6.401 7.584 8.1 2.59 1.702 6.066 2.829 9.966 2.829 3.274 0 5.175-.778 7.725-1.779 2.55-.998 4.624-2.201 6.225-4.221l18.3 10.521c-3.6 5.1-8.152 9-12.966 11.7-6.185 2.7-12.534 4.05-19.5 4.05-6.534 0-12-1.026-17.334-3.075-5.1-2.048-9.427-4.849-12.975-8.4-3.551-3.548-6.3-7.725-8.25-12.525-1.95-4.8-2.925-9.998-2.925-15.6 0-5.599.975-10.8 2.925-15.6 1.95-4.8 4.673-8.974 8.175-12.525 3.499-3.548 7.673-6.349 12.525-8.4 4.849-2.048 10.223-3.075 16.125-3.075 5.714 0 10.575 1.027 15.225 3.075 4.65 2.051 8.648 4.852 12 8.4 3.349 3.551 5.974 7.725 7.875 12.525 1.898 4.8 2.85 10.001 2.85 15.6 0 1.5-.052 2.951-.15 4.35Zm-27.9-20.925c-3-1.448-6.176-2.175-10.2-2.175-2.002 0-3.926.225-5.775.675-1.852.45-3.502 1.05-4.95 1.8-1.001.75-2.625 1.676-3.525 2.775-.216 1.102-1.402 2.25-1.5 3.45h31.35c-.6-2.611-2.4-5.074-5.4-6.525Zm-62.775 54.825c-2.051.199-4.027.3-5.925.3-3.401 0-6.427-.401-9.075-1.2-2.651-.799-4.901-2.175-6.75-4.125-1.411-1.95-3.251-4.575-4.2-7.875-.952-3.021-1.425-7.448-1.425-12.45v-80.4h24.15v79.329c0 1.472.698 2.848 2.1 3.396 1.399.551 3.949.577 7.65.075v22.2c-2.302.3-4.477.819-6.525.75Zm-43.725-9.75c-3.3 3.502-7.327 6.251-12.075 8.25-4.751 1.999-10.125 3-16.125 3-3.476 0-6.975-.576-9.825-1.131-2.391-1.742-5.377-3.317-7.575-5.319v4.2h-24.15v-105h24.15v34.2c2.198-1.999 5.184-3.548 7.575-4.371 2.85-1.378 6.349-1.929 9.825-1.929 6 0 11.374 1.001 16.125 3 4.748 2.002 8.775 4.751 12.075 8.25 3.3 3.502 5.824 7.702 7.575 12.6 1.748 4.901 2.625 10.2 2.625 15.9 0 5.7-.877 10.976-2.625 15.825-1.751 4.852-4.275 9.026-7.575 12.525Zm-14.475-34.95c-.75-2.1-1.826-3.923-3.225-4.971-1.402-2.053-3.026-3.279-4.875-4.179-1.852-.9-3.926-1.071-6.225-1.071-5.002 0-8.977 1.247-11.925 4.296-2.951 3.052-4.425 7.125-4.425 12.225s1.474 9.277 4.425 12.525c2.948 3.251 6.923 4.875 11.925 4.875 2.299 0 4.373-.45 6.225-1.35 1.849-.9 3.473-2.123 4.875-3.675 1.399-1.549 2.475-3.349 3.225-5.4.75-2.048 1.125-4.275 1.125-6.675 0-2.299-.375-4.5-1.125-6.6Zm-91.875 40.05c-2.201 1.901-4.725 3.401-7.476 5.229-2.949.37-6.174.921-9.774.921-6 0-11.377-1.001-16.125-3-4.751-1.999-8.775-4.748-12.075-8.25-3.3-3.499-5.827-7.673-7.575-12.525-1.751-4.849-2.625-10.125-2.625-15.825 0-5.7.874-10.999 2.625-15.9 1.748-4.898 4.275-9.098 7.575-12.6 3.3-3.499 7.324-6.248 12.075-8.25 4.748-1.999 10.125-3 16.125-3 3.6 0 6.825.551 9.774 1.929 2.751.823 5.275 2.323 7.476 4.221v-4.05h24.15v75h-24.15v-3.9Zm-4.65-45.975c-3-3.049-6.952-4.296-11.166-4.296-2.986 0-5.086.171-6.984 1.071-1.901.9-3.525 2.126-4.875 4.179-1.35 1.048-2.4 2.871-3.15 4.971-.651 2.1-1.125 4.301-1.125 6.6 0 2.4.474 4.627 1.125 6.675.75 2.051 1.8 3.851 3.15 5.4 1.35 1.552 2.974 2.775 4.875 3.675 1.898.9 3.998 1.35 6.984 1.35 4.214 0 8.166-1.624 11.166-4.875 3-3.248 4.5-7.425 4.5-12.525 0-5.1-1.5-9.173-4.5-12.225Zm-67.5 49.875h-25.5v-80.85h-26.4v-24.15h78.6v24.15h-26.7v80.85ZM494.801 166.81c1.448.673 3.124 1.772 5.025 2.571 1.898.802 3.9 1.2 6 1.2 2.498 0 4.725-.251 6.675-1.65 1.95-1.099 3.773-2.55 5.475-4.35l20.25 13.2c-3.6 5.201-8.227 9.326-13.875 12.375-5.651 3.049-11.827 4.575-18.525 4.575-5.501 0-10.65-1.026-15.45-3.075-4.8-2.048-9-4.875-12.6-8.475-3.6-3.6-6.45-7.8-8.55-12.6-2.1-4.8-2.466-9.949-2.466-15.45 0-5.498.366-10.65 2.466-15.45 2.1-4.8 4.95-9 8.55-11.871 3.6-4.329 7.8-7.153 12.6-9.204 4.8-2.048 9.949-3.075 15.45-3.075 6.6 0 12.724 1.779 18.375 4.779 5.648 3 10.275 7.5 14.559 11.871l-20.784 13.35c-3.6-3.9-7.65-5.85-12.15-5.85-2.1 0-4.102 1.139-6 1.2-1.901.802-3.577 1.901-5.025 3.3-1.451 1.402-2.576 3.052-3.375 4.95-.802 2.189-1.2 4.179-1.2 6 0 2.1.398 4.102 1.2 6 .799 2.189 1.924 3.551 3.375 5.679Zm-51.525-64.179c-3.3 0-6.15-1.174-8.55-3.525-2.4-2.348-3.6-5.224-3.6-8.625 0-2.651 1.2-6.3 3.6-8.7 2.4-2.4 5.25-3.6 8.55-3.6 3.3 0 6.15 1.2 8.55 3.6 2.4 2.4 3.6 6.049 3.6 8.7 0 3.401-1.2 6.277-3.6 8.625-2.4 2.351-5.25 3.525-8.55 3.525Zm11.85 89.85h-24.15v-75h24.15v75Zm-40.866-52.65c-3.335 0-6.11.45-8.559 1.35-2.452 1.629-4.552 2.126-6.3 3.675-1.751 1.552-3.101 3.375-4.05 5.475-.952 2.1-1.425 4.35-1.425 7.479v34.671h-24.15v-75h24.15v13.35c1.699-3.499 4.474-6.6 8.325-9.3 4.739-2.7 9.499-4.05 14.925-4.05h2.1l-1.5 22.95c-1.102-.101-2.351-.6-3.516-.6Zm-54.084 23.55h-52.8c2.374 4.439 4.073 6.401 7.125 8.1 3.049 1.702 6.759 2.829 10.425 2.829 2.599 0 5.175-.778 7.725-1.779 2.55-.998 4.624-2.201 6.225-4.221l18.3 10.521c-3.6 5.1-7.936 9-13.65 11.7-5.276 2.7-11.85 4.05-19.05 4.05-6.3 0-12-1.026-17.1-3.075-5.1-2.048-9.427-4.849-12.975-8.4-3.551-3.548-6.3-7.725-8.25-12.525-1.95-4.8-2.925-9.998-2.925-15.6 0-5.599.975-10.8 2.925-15.6 1.95-4.8 4.673-8.974 8.175-12.525 3.499-3.548 7.673-6.349 12.525-8.4 4.849-2.048 10.889-3.075 16.125-3.075 5.498 0 10.575 1.027 15.225 3.075 4.65 2.051 8.648 4.852 12 8.4 3.349 3.551 5.974 7.725 8.559 12.525 1.214 4.8 2.166 10.001 2.166 15.6 0 1.5-.052 2.951-.15 4.35-.101 1.402-.3 3.499-.6 4.05Zm-27.3-24.975c-3-1.448-6.401-2.175-10.2-2.175-2.002 0-3.926.225-5.775.675-1.411.45-3.502 1.05-4.95 1.8-1.451.75-2.625 1.676-3.525 2.775-.9 1.102-1.186 2.25-1.5 3.45h31.35c-.6-2.611-2.4-5.074-5.4-6.525Zm-82.65 9.225c0-2.1-.352-3.874-1.05-5.325-.701-1.448-1.575-2.625-2.625-3.525-1.05-.9-2.25-1.523-3.6-1.875a16.422 16.422 0 0 0-4.125-.525c-2.902 0-5.4 1.05-7.5 3.15-2.1 2.1-3.15 5.7-3.15 10.8v42.15H204.26v-75h23.916v4.2c2.299-1.898 5.334-3.424 7.725-4.575 2.85-1.148 5.873-1.725 9.075-1.725 2.7 0 5.749.45 9.15 1.35 3.398.9 6.6 2.527 9.6 4.875 3 2.351 5.524 5.625 7.575 9.825 2.048 4.2 3.075 9.879 3.075 16.2v44.85h-24.15v-44.85Zm-55.95 15.75h-52.8c1.699 4.439 4.073 6.401 7.125 8.1 3.049 1.702 6.525 2.829 10.659 2.829 2.365 0 4.941-.778 7.491-1.779 2.55-.998 4.624-2.201 6.225-4.221l18.3 10.521c-3.6 5.1-8.152 9-13.65 11.7-5.501 2.7-11.85 4.05-19.05 4.05-6.3 0-12-1.026-17.1-3.075-5.1-2.048-8.986-4.849-12.975-8.4-3.551-3.548-6.3-7.725-8.25-12.525-1.95-4.8-2.925-9.998-2.925-15.6 0-5.599.975-10.8 2.925-15.6 1.95-4.8 4.673-8.974 8.175-12.525 3.499-3.548 8.564-6.349 12.525-8.4 4.849-2.048 10.223-3.075 16.809-3.075 4.814 0 9.891 1.027 14.541 3.075 4.65 2.051 8.648 4.852 12 8.4 3.349 3.551 5.974 7.725 7.875 12.525 2.564 4.8 3.084 10.001 3.084 15.6 0 1.5-.286 2.951-.384 4.35-.101 1.402-.3 3.499-.6 4.05Zm-27.3-24.975c-3-1.448-6.401-2.175-10.2-2.175-2.002 0-3.926.225-5.676.675-1.951.45-3.601 1.05-4.59 1.8-1.91.75-3.084 1.676-3.984 2.775-.9 1.102-1.402 2.25-1.266 3.45h31.116c-.6-2.611-2.4-5.074-5.4-6.525Zm-71.4 41.4c-4.901 4.552-10.476 8.152-17.025 10.8-6.45 2.649-13.275 3.975-19.791 3.975-8.184 0-15.211-1.425-21.66-4.275-6.65-2.85-12.376-6.724-17.274-11.625-4.901-4.898-8.316-10.111-11.625-17.175-2.85-6.548-4.275-13.575-4.275-21.075s1.425-14.524 4.275-21.075c3.309-6.548 6.724-11.536 11.625-17.175 4.898-4.898 10.624-8.775 17.274-11.625 6.449-2.85 13.476-4.275 21.66-4.275 8.114 0 16.24 1.927 23.691 6.279 7.448 3.347 14.299 8.571 18.525 15.171l-19.716 15.75c-2.836-3.499-6.136-6.323-10.134-7.881-4.001-2.743-8.351-3.819-12.366-3.819-4.584 0-8.285.75-11.784 2.529-3.502 1.221-6.551 3.272-9.15 5.871-2.602 2.602-4.65 5.651-6.15 9.15-1.5 3.502-2.25 7.2-2.25 11.1 0 3.9.75 7.889 2.25 11.1 1.5 3.799 3.548 7.029 6.15 9.075 2.599 2.55 5.648 4.575 9.15 6.075 3.499 1.5 7.2 2.25 11.784 2.25 4.015 0 8.74-.975 12.141-2.331 3.848-2.04 7.024-5.169 9.525-8.469h-27v-24.3h58.05v10.35c0 7.629-.966 13.425-4.275 19.575-2.85 6.15-6.727 11.501-11.625 16.05Z"/>
</svg>
